<mxfile host="app.diagrams.net" modified="2022-04-13T10:28:57.430Z" agent="5.0 (Macintosh; Intel Mac OS X 10_15_7) AppleWebKit/537.36 (KHTML, like Gecko) Chrome/99.0.4844.51 Safari/537.36" etag="3fd2DNJ5U_FVsxPjcG4n" version="17.4.3" type="github">
  <diagram id="rdFBHB5rS_v9cPbDyznU" name="Page-1">
    <mxGraphModel dx="1143" dy="664" grid="1" gridSize="10" guides="1" tooltips="1" connect="1" arrows="1" fold="1" page="1" pageScale="1" pageWidth="827" pageHeight="1169" math="0" shadow="0">
      <root>
        <mxCell id="0" />
        <mxCell id="1" parent="0" />
        <mxCell id="Lps7lV8sCtotlr5Zyx_B-1" value="&lt;meta charset=&quot;utf-8&quot;&gt;&lt;img&gt;" style="text;whiteSpace=wrap;html=1;" vertex="1" parent="1">
          <mxGeometry x="100" y="240" width="30" height="30" as="geometry" />
        </mxCell>
      </root>
    </mxGraphModel>
  </diagram>
</mxfile>
